<?xml version="1.0" encoding="UTF-8"?>
<svg xmlns="http://www.w3.org/2000/svg" xmlns:xlink="http://www.w3.org/1999/xlink" width="182px" height="60px" viewBox="0 0 182 60" version="1.1">
  <title>camlin-group-logo</title>
  <g id="Symbols" stroke="none" stroke-width="1" fill="none" fill-rule="evenodd">
    <g id="Header" transform="translate(-130.000000, -46.000000)" fill-rule="nonzero">
      <g id="camlin-group-logo" transform="translate(130.000000, 46.000000)">
        <path d="M30.0591549,17.8521127 C34.5380282,17.8521127 38.4507042,20.2774648 40.5507042,23.8901408 C41.1887324,24.9802817 41.6577465,26.1802817 41.9323944,27.4521127 C41.9957746,27.7309859 42.2323944,27.9338028 42.515493,27.9338028 L52.5633803,27.9338028 C52.9309859,27.9338028 53.2056338,27.6338028 53.1676056,27.2661972 C53.0366197,26.1084507 52.8169014,24.9802817 52.5126761,23.8901408 C51.4647887,20.0197183 49.4450704,16.5507042 46.7323944,13.7619718 C45.515493,12.5112676 44.1549296,11.3957746 42.684507,10.4450704 C40.043662,8.72957746 37.0267606,7.53802817 33.7901408,7.01830986 C32.6577465,6.83239437 31.4915493,6.73098592 30.3084507,6.71830986 L30.0591549,6.71830986 C29.928169,6.71830986 29.7929577,6.71830986 29.6619718,6.72253521 C28.4788732,6.73943662 27.3211268,6.84929577 26.1887324,7.03943662 C22.943662,7.58028169 19.9267606,8.7971831 17.2859155,10.5338028 C15.8112676,11.5056338 14.4507042,12.6380282 13.2380282,13.9098592 C9.12676056,18.2112676 6.64647887,24.0887324 6.79859155,30.5450704 C6.93802817,36.5323944 9.37183099,41.9619718 13.2380282,46.0098592 C14.4549296,47.2859155 15.815493,48.4225352 17.2859155,49.3985915 C19.9394366,51.1521127 22.9605634,52.3774648 26.1929577,52.9225352 C27.3253521,53.1211268 28.4830986,53.2267606 29.6619718,53.2478873 C29.8774648,53.2521127 30.0929577,53.256338 30.3084507,53.2521127 C30.3971831,53.2521127 30.4859155,53.2521127 30.5704225,53.2478873 C31.6647887,53.2225352 32.7380282,53.1253521 33.7901408,52.9521127 C37.0267606,52.4366197 40.0394366,51.2450704 42.684507,49.5338028 C44.1591549,48.5830986 45.515493,47.4676056 46.7323944,46.2126761 C49.4619718,43.4070423 51.4901408,39.9169014 52.5295775,36.0211268 C52.8253521,34.9309859 53.0408451,33.7985915 53.171831,32.6408451 C53.2140845,32.2901408 52.9309859,31.9816901 52.571831,31.9816901 L49.7112676,31.9816901 C49.4070423,31.9816901 49.1535211,32.2098592 49.1112676,32.5098592 C48.9549296,33.7225352 48.684507,34.8929577 48.3084507,36.0211268 C47.4887324,38.5056338 46.1746479,40.7661972 44.4760563,42.6887324 C43.9225352,43.3225352 43.3225352,43.9225352 42.684507,44.4760563 C40.128169,46.7112676 36.9760563,48.2788732 33.4943662,48.9 C32.5267606,49.0816901 31.5380282,49.1830986 30.5239437,49.2042254 C30.1647887,49.2169014 29.8056338,49.2126761 29.4464789,49.2 L29.3577465,49.2 C28.3774648,49.1661972 27.4140845,49.056338 26.4760563,48.8746479 C22.9901408,48.2112676 19.8380282,46.5971831 17.2859155,44.315493 C16.715493,43.8084507 16.1746479,43.2633803 15.6676056,42.6887324 C12.7225352,39.3633803 10.9098592,35.0197183 10.8380282,30.2830986 C10.7619718,25.2971831 12.5873239,20.7380282 15.6338028,17.2859155 C16.1492958,16.6985915 16.7028169,16.1450704 17.2859155,15.6253521 C19.8338028,13.3605634 22.9859155,11.7591549 26.4760563,11.1042254 C27.4394366,10.9225352 28.4323944,10.8126761 29.4464789,10.7788732 C29.6492958,10.7746479 29.8521127,10.7704225 30.0591549,10.7704225 C30.215493,10.7704225 30.371831,10.7704225 30.5239437,10.7788732 C31.5380282,10.8 32.5267606,10.9014085 33.4943662,11.0788732 C36.971831,11.7042254 40.128169,13.2676056 42.684507,15.5028169 C43.3225352,16.056338 43.9225352,16.6521127 44.4760563,17.2859155 C45.971831,18.9760563 47.171831,20.9366197 47.9957746,23.0788732 C48.1478873,23.4676056 47.856338,23.8901408 47.4422535,23.8901408 L45.6633803,23.8901408 C45.4267606,23.8901408 45.2112676,23.7422535 45.1183099,23.5225352 C43.0478873,18.7056338 38.7338028,15.0802817 33.4943662,13.9647887 C32.5309859,13.7577465 31.5380282,13.6352113 30.5239437,13.6098592 C30.371831,13.6056338 30.215493,13.6014085 30.0591549,13.6014085 C29.8521127,13.6014085 29.6492958,13.6056338 29.4464789,13.6140845 C28.428169,13.6521127 27.4352113,13.7788732 26.4760563,13.9943662 C18.9042254,15.684507 13.3098592,22.6098592 13.6859155,30.7690141 C14.0323944,38.2140845 19.4239437,44.3957746 26.4760563,45.9802817 C27.4394366,46.2 28.4323944,46.3309859 29.4464789,46.3690141 L29.471831,46.3690141 C29.8267606,46.3816901 30.1774648,46.3816901 30.5239437,46.3690141 C31.5422535,46.343662 32.5352113,46.2211268 33.4943662,46.0098592 C38.8901408,44.8605634 43.3014085,41.0535211 45.2957746,36.0211268 C45.7183099,34.9647887 46.0309859,33.8408451 46.2253521,32.6873239 C46.284507,32.315493 46.0014085,31.9816901 45.6253521,31.9816901 L35.0788732,31.9816901 C34.8549296,31.9816901 34.656338,32.1126761 34.5507042,32.3112676 C34.043662,33.2873239 33.2323944,34.0774648 32.2352113,34.5507042 C31.5760563,34.8676056 30.8366197,35.0450704 30.0591549,35.0450704 C27.971831,35.0450704 26.1802817,33.7816901 25.4070423,31.9816901 C25.1450704,31.3690141 25.0014085,30.6929577 25.0014085,29.9915493 C25.0014085,29.256338 25.1577465,28.5549296 25.4366197,27.9338028 C26.2225352,26.1633803 27.9971831,24.9295775 30.0591549,24.9295775 C30.8366197,24.9295775 31.5760563,25.1070423 32.2352113,25.4239437 C33.2197183,25.8887324 34.0267606,26.6661972 34.5338028,27.6253521 C34.6309859,27.815493 34.8338028,27.9338028 35.0492958,27.9338028 L38.1507042,27.9338028 C38.556338,27.9338028 38.8394366,27.528169 38.7084507,27.1478873 C38.3070423,25.9267606 37.656338,24.8197183 36.815493,23.8901408 C35.1507042,22.043662 32.7380282,20.8859155 30.0591549,20.8859155 C25.7366197,20.8859155 22.1197183,23.8985915 21.1859155,27.9338028 C21.0338028,28.5929577 20.9535211,29.2816901 20.9535211,29.9915493 C20.9535211,30.671831 21.0295775,31.3394366 21.1732394,31.9816901 C22.0816901,36.0507042 25.715493,39.0887324 30.0591549,39.0887324 C32.771831,39.0887324 35.2056338,37.9056338 36.8746479,36.0211268 L39.8830986,36.0211268 C40.1957746,36.0211268 40.3859155,36.371831 40.2169014,36.6338028 C37.9225352,40.1366197 33.8788732,42.3760563 29.3323944,42.1056338 C23.1422535,41.7507042 18.1690141,36.6591549 17.928169,30.4690141 C17.6619718,23.5478873 23.1929577,17.8521127 30.0591549,17.8521127 Z" id="Path" fill="#FFFFFF"></path>
        <g id="Group" transform="translate(76.901408, 18.591549)" fill="#3C4E59">
          <path d="M14.0746479,15.7309859 L18.3169014,15.7309859 C17.4,19.7830986 13.7746479,22.8042254 9.44788732,22.8042254 C7.58028169,22.8042254 5.84366197,22.2422535 4.39859155,21.2746479 C1.95633803,19.643662 0.350704225,16.8633803 0.350704225,13.7070423 C0.350704225,10.5507042 1.95633803,7.77042254 4.39859155,6.13943662 C5.84366197,5.17183099 7.58028169,4.60985915 9.44788732,4.60985915 C13.7746479,4.60985915 17.4,7.63098592 18.3169014,11.6830986 L14.0746479,11.6830986 C13.2929577,9.9 11.5183099,8.65774648 9.44788732,8.65774648 C6.65915493,8.65774648 4.39859155,10.9183099 4.39859155,13.7070423 C4.39859155,16.4957746 6.65915493,18.756338 9.44788732,18.756338 C11.5183099,18.756338 13.2929577,17.5140845 14.0746479,15.7309859 Z" id="Path"></path>
          <path d="M37.4112676,13.2507042 L37.4112676,21.8957746 L33.3633803,21.8957746 L33.3633803,13.2507042 C33.3633803,12.1647887 32.9830986,11.1676056 32.3577465,10.3774648 C31.5211268,9.32957746 30.228169,8.65774648 28.7746479,8.65774648 C26.2394366,8.65774648 24.1774648,10.715493 24.1774648,13.2507042 C24.1774648,15.7901408 26.2394366,17.8478873 28.7746479,17.8478873 L32.1507042,17.8478873 L32.1507042,21.8957746 L28.7746479,21.8957746 C25.6859155,21.8957746 22.9816901,20.2774648 21.4521127,17.8478873 C20.615493,16.5169014 20.1295775,14.9408451 20.1295775,13.2507042 C20.1295775,8.48028169 24.0042254,4.60985915 28.7746479,4.60985915 C30.0507042,4.60985915 31.2633803,4.88873239 32.3577465,5.38732394 C32.7042254,5.54366197 33.0422535,5.72957746 33.3633803,5.93239437 C35.7971831,7.45774648 37.4112676,10.1661972 37.4112676,13.2507042 Z" id="Path"></path>
          <path d="M99.1732394,5.93239437 C97.8422535,5.09577465 96.2704225,4.60985915 94.5802817,4.60985915 C92.8901408,4.60985915 91.3140845,5.09577465 89.9830986,5.93239437 C87.5535211,7.46197183 85.9352113,10.1661972 85.9352113,13.2507042 L85.9352113,21.8957746 L89.9830986,21.8957746 L89.9830986,20.5732394 L89.9830986,13.2507042 C89.9830986,10.715493 92.0408451,8.65774648 94.5802817,8.65774648 C97.115493,8.65774648 99.1732394,10.715493 99.1732394,13.2507042 L99.1732394,20.5732394 L99.1732394,21.8957746 L103.221127,21.8957746 L103.221127,13.2507042 C103.221127,10.1661972 101.602817,7.45774648 99.1732394,5.93239437 Z" id="Path"></path>
          <path d="M66.1859155,5.93239437 C64.8549296,5.09577465 63.2830986,4.60985915 61.5929577,4.60985915 C59.9028169,4.60985915 58.3267606,5.09577465 56.9957746,5.93239437 C56.2309859,6.41408451 55.5507042,7.00985915 54.971831,7.6943662 C54.3929577,7.0056338 53.7126761,6.40985915 52.9478873,5.93239437 C51.6169014,5.09577465 50.0450704,4.60985915 48.3549296,4.60985915 C46.6647887,4.60985915 45.0887324,5.09577465 43.7577465,5.93239437 C41.328169,7.46197183 39.7098592,10.1661972 39.7098592,13.2507042 L39.7098592,21.8957746 L43.7577465,21.8957746 L43.7577465,20.5732394 L43.7577465,13.2507042 C43.7577465,10.715493 45.815493,8.65774648 48.3549296,8.65774648 C50.8901408,8.65774648 52.9478873,10.715493 52.9478873,13.2507042 L52.9478873,20.5732394 L52.9478873,21.8957746 L56.9957746,21.8957746 L56.9957746,21.8957746 L56.9957746,13.2507042 C56.9957746,13.2507042 56.9957746,13.2507042 56.9957746,13.2507042 C56.9957746,10.715493 59.0535211,8.65774648 61.5929577,8.65774648 C64.128169,8.65774648 66.1859155,10.715493 66.1859155,13.2507042 L66.1859155,20.5732394 L66.1859155,21.8957746 L70.2338028,21.8957746 L70.2338028,13.2507042 C70.2338028,10.1661972 68.615493,7.45774648 66.1859155,5.93239437 Z" id="Path"></path>
          <rect id="Rectangle" x="72.7690141" y="0.0633802817" width="4.04788732" height="21.8323944"></rect>
          <g transform="translate(79.014085, 0.000000)">
            <rect id="Rectangle" x="0.338028169" y="5.52253521" width="4.04788732" height="16.3732394"></rect>
            <path d="M0.338028169,2.08732394 L0.338028169,2.08732394 C0.338028169,3.20704225 1.24225352,4.11126761 2.36197183,4.11126761 L2.36197183,4.11126761 C3.48169014,4.11126761 4.38591549,3.20704225 4.38591549,2.08732394 L4.38591549,2.08732394 C4.38591549,0.967605634 3.48169014,0.0633802817 2.36197183,0.0633802817 L2.36197183,0.0633802817 C1.24647887,0.0633802817 0.338028169,0.967605634 0.338028169,2.08732394 Z" id="Path"></path>
          </g>
        </g>
        <path d="M55.9225352,1.32253521 C54.5915493,0.485915493 53.0197183,0 51.3295775,0 L8.64507042,0 C6.95492958,0 5.37887324,0.485915493 4.04788732,1.32253521 C1.61830986,2.85211268 0,5.55633803 0,8.64084507 L0,51.3338028 C0,54.4183099 1.61830986,57.1225352 4.04788732,58.6521127 C5.37887324,59.4887324 6.95492958,59.9746479 8.64507042,59.9746479 L51.3295775,59.9746479 C53.0197183,59.9746479 54.5915493,59.4887324 55.9225352,58.6521127 C58.3521127,57.1267606 59.9704225,54.4183099 59.9704225,51.3338028 L59.9704225,8.64084507 C59.9704225,5.55633803 58.3521127,2.84788732 55.9225352,1.32253521 Z M53.171831,32.6408451 C53.0408451,33.7985915 52.8253521,34.9309859 52.5295775,36.0211268 C51.4901408,39.9169014 49.4619718,43.4070423 46.7323944,46.2126761 C45.515493,47.4676056 44.1591549,48.5830986 42.684507,49.5338028 C40.0394366,51.2450704 37.0267606,52.4366197 33.7901408,52.9521127 C32.7380282,53.1253521 31.6647887,53.2225352 30.5704225,53.2478873 C30.4859155,53.2521127 30.3971831,53.2521127 30.3084507,53.2521127 C30.0929577,53.256338 29.8774648,53.2521127 29.6619718,53.2478873 C28.4830986,53.2267606 27.3253521,53.1211268 26.1929577,52.9225352 C22.9605634,52.3774648 19.9394366,51.1521127 17.2859155,49.3985915 C15.815493,48.4225352 14.4549296,47.2859155 13.2380282,46.0098592 C9.37183099,41.9619718 6.93802817,36.5323944 6.79859155,30.5450704 C6.64647887,24.0887324 9.12676056,18.2112676 13.2380282,13.9098592 C14.4507042,12.6380282 15.8112676,11.5056338 17.2859155,10.5338028 C19.9267606,8.7971831 22.943662,7.58028169 26.1887324,7.03943662 C27.3211268,6.84929577 28.4788732,6.73943662 29.6619718,6.72253521 C29.7929577,6.71830986 29.928169,6.71830986 30.0591549,6.71830986 L30.3084507,6.71830986 C31.4915493,6.73098592 32.6577465,6.83239437 33.7901408,7.01830986 C37.0267606,7.53802817 40.043662,8.72957746 42.684507,10.4450704 C44.1549296,11.3957746 45.515493,12.5112676 46.7323944,13.7619718 C49.4450704,16.5507042 51.4647887,20.0197183 52.5126761,23.8901408 C52.8169014,24.9802817 53.0366197,26.1084507 53.1676056,27.2661972 C53.2056338,27.6338028 52.9309859,27.9338028 52.5633803,27.9338028 L42.515493,27.9338028 C42.2323944,27.9338028 41.9957746,27.7309859 41.9323944,27.4521127 C41.6577465,26.1802817 41.1887324,24.9802817 40.5507042,23.8901408 C38.4507042,20.2774648 34.5380282,17.8521127 30.0591549,17.8521127 C23.1929577,17.8521127 17.6619718,23.5478873 17.928169,30.4690141 C18.1690141,36.6591549 23.1422535,41.7507042 29.3323944,42.1056338 C33.8788732,42.3760563 37.9225352,40.1366197 40.2169014,36.6338028 C40.3859155,36.371831 40.1957746,36.0211268 39.8830986,36.0211268 L36.8746479,36.0211268 C35.2056338,37.9056338 32.771831,39.0887324 30.0591549,39.0887324 C25.715493,39.0887324 22.0816901,36.0507042 21.1732394,31.9816901 C21.0295775,31.3394366 20.9535211,30.671831 20.9535211,29.9915493 C20.9535211,29.2816901 21.0338028,28.5929577 21.1859155,27.9338028 C22.1197183,23.8985915 25.7366197,20.8859155 30.0591549,20.8859155 C32.7380282,20.8859155 35.1507042,22.043662 36.815493,23.8901408 C37.656338,24.8197183 38.3070423,25.9267606 38.7084507,27.1478873 C38.8394366,27.528169 38.556338,27.9338028 38.1507042,27.9338028 L35.0492958,27.9338028 C34.8338028,27.9338028 34.6309859,27.815493 34.5338028,27.6253521 C34.0267606,26.6661972 33.2197183,25.8887324 32.2352113,25.4239437 C31.5760563,25.1070423 30.8366197,24.9295775 30.0591549,24.9295775 C27.9971831,24.9295775 26.2225352,26.1633803 25.4366197,27.9338028 C25.1577465,28.5549296 25.0014085,29.256338 25.0014085,29.9915493 C25.0014085,30.6929577 25.1450704,31.3690141 25.4070423,31.9816901 C26.1802817,33.7816901 27.971831,35.0450704 30.0591549,35.0450704 C30.8366197,35.0450704 31.5760563,34.8676056 32.2352113,34.5507042 C33.2323944,34.0774648 34.043662,33.2873239 34.5507042,32.3112676 C34.656338,32.1126761 34.8549296,31.9816901 35.0788732,31.9816901 L45.6253521,31.9816901 C46.0014085,31.9816901 46.284507,32.315493 46.2253521,32.6873239 C46.0309859,33.8408451 45.7183099,34.9647887 45.2957746,36.0211268 C43.3014085,41.0535211 38.8901408,44.8605634 33.4943662,46.0098592 C32.5352113,46.2211268 31.5422535,46.343662 30.5239437,46.3690141 C30.1774648,46.3816901 29.8267606,46.3816901 29.471831,46.3690141 L29.4464789,46.3690141 C28.4323944,46.3309859 27.4394366,46.2 26.4760563,45.9802817 C19.4239437,44.3957746 14.0323944,38.2140845 13.6859155,30.7690141 C13.3098592,22.6098592 18.9042254,15.684507 26.4760563,13.9943662 C27.4352113,13.7788732 28.428169,13.6521127 29.4464789,13.6140845 C29.6492958,13.6056338 29.8521127,13.6014085 30.0591549,13.6014085 C30.215493,13.6014085 30.371831,13.6056338 30.5239437,13.6098592 C31.5380282,13.6352113 32.5309859,13.7577465 33.4943662,13.9647887 C38.7338028,15.0802817 43.0478873,18.7056338 45.1183099,23.5225352 C45.2112676,23.7422535 45.4267606,23.8901408 45.6633803,23.8901408 L47.4422535,23.8901408 C47.856338,23.8901408 48.1478873,23.4676056 47.9957746,23.0788732 C47.171831,20.9366197 45.971831,18.9760563 44.4760563,17.2859155 C43.9225352,16.6521127 43.3225352,16.056338 42.684507,15.5028169 C40.128169,13.2676056 36.971831,11.7042254 33.4943662,11.0788732 C32.5267606,10.9014085 31.5380282,10.8 30.5239437,10.7788732 C30.371831,10.7704225 30.215493,10.7704225 30.0591549,10.7704225 C29.8521127,10.7704225 29.6492958,10.7746479 29.4464789,10.7788732 C28.4323944,10.8126761 27.4394366,10.9225352 26.4760563,11.1042254 C22.9859155,11.7591549 19.8338028,13.3605634 17.2859155,15.6253521 C16.7028169,16.1450704 16.1492958,16.6985915 15.6338028,17.2859155 C12.5873239,20.7380282 10.7619718,25.2971831 10.8380282,30.2830986 C10.9098592,35.0197183 12.7225352,39.3633803 15.6676056,42.6887324 C16.1746479,43.2633803 16.715493,43.8084507 17.2859155,44.315493 C19.8380282,46.5971831 22.9901408,48.2112676 26.4760563,48.8746479 C27.4140845,49.056338 28.3774648,49.1661972 29.3577465,49.2 L29.4464789,49.2 C29.8056338,49.2126761 30.1647887,49.2169014 30.5239437,49.2042254 C31.5380282,49.1830986 32.5267606,49.0816901 33.4943662,48.9 C36.9760563,48.2788732 40.128169,46.7112676 42.684507,44.4760563 C43.3225352,43.9225352 43.9225352,43.3225352 44.4760563,42.6887324 C46.1746479,40.7661972 47.4887324,38.5056338 48.3084507,36.0211268 C48.684507,34.8929577 48.9549296,33.7225352 49.1112676,32.5098592 C49.1535211,32.2098592 49.4070423,31.9816901 49.7112676,31.9816901 L52.571831,31.9816901 C52.9309859,31.9816901 53.2140845,32.2901408 53.171831,32.6408451 Z" id="Shape" fill="#3C9FE2"></path>
      </g>
    </g>
  </g>
</svg>
